<?xml version="1.0" encoding="utf-8"?>
<!DOCTYPE svg PUBLIC "-//W3C//DTD SVG 1.1//EN" "http://www.w3.org/Graphics/SVG/1.1/DTD/svg11.dtd">
<svg version="1.1" id="Layer_1" xmlns="http://www.w3.org/2000/svg" xmlns:xlink="http://www.w3.org/1999/xlink" x="0px" y="0px"
	 width="120px" height="120px" viewBox="0 0 120 120" enable-background="new 0 0 120 120" xml:space="preserve">
<path fill="#FFFFFF" d="M46,113.5c0,1.384-1.116,2.5-2.5,2.5h-35c-1.384,0-2.5-1.116-2.5-2.5V6.5C6,5.116,7.116,4,8.5,4h35
	C44.884,4,46,5.116,46,6.5V113.5z"/>
<path fill="#FFFFFF" d="M114,113.5c0,1.384-1.116,2.5-2.5,2.5h-35c-1.384,0-2.5-1.116-2.5-2.5V6.5C74,5.116,75.116,4,76.5,4h35
	c1.384,0,2.5,1.116,2.5,2.5V113.5z"/>
</svg>
